HIERARCHY
ROOT Hips
{
 OFFSET 0.000000 0.000000 0.000000
 CHANNELS 6 Xposition Yposition Zposition Yrotation Xrotation Zrotation
 JOINT Chest
 {
  OFFSET 0.000000 9.585900 0.002600
  CHANNELS 3 Yrotation Xrotation Zrotation
  JOINT Chest2
  {
   OFFSET 0.000000 9.601200 -0.005300
   CHANNELS 3 Yrotation Xrotation Zrotation
   JOINT Chest3
   {
    OFFSET 0.000000 9.561800 0.000000
    CHANNELS 3 Yrotation Xrotation Zrotation
    JOINT Chest4
    {
     OFFSET 0.000000 9.552100 0.000000
     CHANNELS 3 Yrotation Xrotation Zrotation
     JOINT Neck
     {
      OFFSET 0.000000 14.453000 0.000000
      CHANNELS 3 Yrotation Xrotation Zrotation
      JOINT Head
      {
       OFFSET 0.000000 8.936500 -0.011300
       CHANNELS 3 Yrotation Xrotation Zrotation
       End Site
       {
        OFFSET 0.000000 17.073600 -0.006000
       }
      }
     }
     JOINT RightCollar
     {
      OFFSET -2.921100 9.558500 0.000000
      CHANNELS 3 Yrotation Xrotation Zrotation
      JOINT RightShoulder
      {
       OFFSET -13.519700 0.000000 0.000000
       CHANNELS 3 Yrotation Xrotation Zrotation
       JOINT RightElbow
       {
        OFFSET 0.000000 -29.696600 0.000000
        CHANNELS 3 Yrotation Xrotation Zrotation
        JOINT RightWrist
        {
         OFFSET 0.000000 -24.004700 0.000000
         CHANNELS 3 Yrotation Xrotation Zrotation
         End Site
         {
          OFFSET 0.000000 -17.728500 0.000000
         }
        }
       }
      }
     }
     JOINT LeftCollar
     {
      OFFSET 2.921100 9.558500 0.000000
      CHANNELS 3 Yrotation Xrotation Zrotation
      JOINT LeftShoulder
      {
       OFFSET 13.519700 0.000000 0.000000
       CHANNELS 3 Yrotation Xrotation Zrotation
       JOINT LeftElbow
       {
        OFFSET 0.000000 -29.696600 0.000000
        CHANNELS 3 Yrotation Xrotation Zrotation
        JOINT LeftWrist
        {
         OFFSET 0.000000 -24.004700 0.000000
         CHANNELS 3 Yrotation Xrotation Zrotation
         End Site
         {
          OFFSET 0.000000 -17.728500 0.000000
         }
        }
       }
      }
     }
    }
   }
  }
 }
 JOINT RightHip
 {
  OFFSET -7.771700 -0.012900 -0.001300
  CHANNELS 3 Yrotation Xrotation Zrotation
  JOINT RightKnee
  {
   OFFSET 0.000000 -40.869800 0.001200
   CHANNELS 3 Yrotation Xrotation Zrotation
   JOINT RightAnkle
   {
    OFFSET 0.000000 -39.717900 0.002100
    CHANNELS 3 Yrotation Xrotation Zrotation
    JOINT RightToe
    {
     OFFSET 0.000000 -4.965400 11.033500
     CHANNELS 3 Yrotation Xrotation Zrotation
     End Site
     {
      OFFSET 0.000000 -1.423100 5.872300
     }
    }
   }
  }
 }
 JOINT LeftHip
 {
  OFFSET 7.771700 -0.012900 -0.001300
  CHANNELS 3 Yrotation Xrotation Zrotation
  JOINT LeftKnee
  {
   OFFSET 0.000000 -40.869800 0.001200
   CHANNELS 3 Yrotation Xrotation Zrotation
   JOINT LeftAnkle
   {
    OFFSET 0.000000 -39.717900 0.002100
    CHANNELS 3 Yrotation Xrotation Zrotation
    JOINT LeftToe
    {
     OFFSET 0.000000 -4.965400 11.033500
     CHANNELS 3 Yrotation Xrotation Zrotation
     End Site
     {
      OFFSET 0.000000 -1.423100 5.872300
     }
    }
   }
  }
 }
}
MOTION
Frames: 5
Frame Time: 0.008333
-7.885154 55.218988 -25.858188 179.771195 -17.092868 -1.806896 0.603831 15.291645 -0.109638 0.070651 1.445261 0.005385 0.118878 2.429496 0.009962 0.691336 13.718681 0.122055 0.227996 12.469917 6.443073 -1.266862 -12.564371 6.952894 -0.212587 2.720781 1.636799 3.266061 -8.080175 -7.572515 -71.255704 -55.936615 104.508531 -13.568487 12.632208 -4.097313 -5.335601 -0.373628 3.134921 1.485363 -10.385925 7.190768 52.183054 -48.806550 -94.319149 9.825314 -5.075555 10.044360 -1.181489 -57.678289 13.070768 -110.744052 88.612853 -115.368953 -10.542110 -22.511191 15.207829 0.002616 -0.042823 -0.052811 10.073929 -54.657789 -5.571703 113.698688 77.295933 111.965710 -6.658375 -23.754324 0.708442 0.033117 0.228704 0.006685
-7.885264 55.219387 -25.857925 179.758992 -17.098214 -1.805836 0.610996 15.293557 -0.104701 0.065183 1.440980 0.009729 0.117983 2.427167 0.010676 0.686866 13.712965 0.125832 0.235842 12.405960 6.454918 -1.255426 -12.566269 6.936386 -0.208979 2.731056 1.630891 3.277739 -8.075200 -7.565600 -71.218257 -55.926957 104.498977 -13.549209 12.640415 -4.109322 -5.314938 -0.358253 3.130384 1.473441 -10.377571 7.173159 52.196162 -48.812415 -94.342555 9.835324 -5.078079 10.026324 -1.179872 -57.673730 13.091350 -110.399165 88.604087 -115.016227 -10.613904 -22.490501 15.219676 0.049175 -0.038545 -0.029531 10.077557 -54.654899 -5.564551 113.701589 77.292125 111.968421 -6.662832 -23.749612 0.708449 0.034647 0.224839 0.007762
-7.881697 55.220694 -25.861000 179.731960 -17.122650 -1.823369 0.639353 15.313940 -0.075470 0.060251 1.436490 0.014662 0.121966 2.429852 0.006247 0.673212 13.697775 0.139280 0.248005 12.407174 6.439040 -1.250233 -12.578152 6.933676 -0.196215 2.744193 1.618450 3.281775 -8.067718 -7.569694 -71.206331 -55.914998 104.502580 -13.535299 12.653515 -4.112293 -5.294367 -0.337415 3.111734 1.464121 -10.361665 7.168464 52.212417 -48.815343 -94.379313 9.828818 -5.087370 10.041886 -1.194646 -57.646196 13.157334 -109.716773 88.592284 -114.317985 -10.721837 -22.464514 15.231676 0.018236 -0.040423 -0.018800 10.058450 -54.637304 -5.511537 113.706894 77.289508 111.974252 -6.654460 -23.718467 0.708467 0.024602 0.195431 0.004281
-7.882157 55.220693 -25.860867 179.724791 -17.124085 -1.823888 0.636771 15.309559 -0.067777 0.061540 1.434268 0.016504 0.124362 2.433052 0.001356 0.669867 13.694216 0.142253 0.252830 12.396908 6.436766 -1.245249 -12.590084 6.930852 -0.189692 2.749637 1.618408 3.281025 -8.061099 -7.547178 -71.195795 -55.940235 104.494108 -13.530398 12.660929 -4.111258 -5.285950 -0.328926 3.102952 1.463125 -10.359807 7.168233 52.181550 -48.788817 -94.390329 9.818109 -5.115829 10.049963 -1.193371 -57.642750 13.169189 -109.257551 88.579663 -113.856118 -10.755562 -22.452768 15.238953 0.015780 -0.040972 -0.015266 10.056920 -54.637560 -5.504897 113.706772 77.287825 111.973732 -6.657840 -23.716276 0.709403 0.026287 0.195379 0.004831
-7.883532 55.220576 -25.860986 179.723489 -17.125389 -1.821596 0.629653 15.304349 -0.061499 0.061648 1.432951 0.014816 0.121394 2.429845 0.004470 0.668428 13.696358 0.138070 0.257928 12.369572 6.443083 -1.232492 -12.609449 6.923714 -0.190256 2.758267 1.628805 3.294143 -8.053877 -7.551952 -71.199580 -55.950865 104.495838 -13.529577 12.669344 -4.101829 -5.275948 -0.317685 3.103919 1.459449 -10.355969 7.161507 52.182399 -48.782947 -94.404122 9.844680 -5.141493 10.033508 -1.189697 -57.643038 13.165213 -109.208497 88.577334 -113.811875 -10.741779 -22.434721 15.238362 0.043261 -0.042761 -0.005343 10.057123 -54.635761 -5.507463 113.697944 77.286298 111.963261 -6.660428 -23.716412 0.713694 0.027219 0.197964 0.003788
